<svg xmlns="http://www.w3.org/2000/svg">
    <symbol id = "play" viewBox="0 0 20 20">
       <path fill="currentColor" d="M17.194 9.64 6.139 3.256a.41.41 0 0 0-.416 0 .41.41 0 0 0-.209.36v12.765c0 .16.087.291.209.361.121.07.277.08.416 0l11.055-6.382a.41.41 0 0 0 .208-.361c0-.14-.07-.28-.208-.36"></path>  
    </symbol>
    <symbol id = "pause" viewBox="0 0 20 20">
        <path fill="currentColor" d="M8.25 3.09v13.82a.415.415 0 0 1-.417.416H4.81a.415.415 0 0 1-.417-.416V3.09a.415.415 0 0 1 .417-.416h3.023a.415.415 0 0 1 .416.416m7.358 0v13.82a.415.415 0 0 1-.417.416h-3.022a.415.415 0 0 1-.417-.416V3.09a.415.415 0 0 1 .417-.416h3.022a.415.415 0 0 1 .417.416"></path>  
    </symbol>
    <symbol id = "next" viewBox="0 0 20 20">
       <path fill="currentColor" d="m18.195 9.653-6.926-4.602a.41.41 0 0 0-.427-.02.41.41 0 0 0-.22.367v3.767L4.43 5.051a.41.41 0 0 0-.428-.02.41.41 0 0 0-.22.367v9.204c0 .166.093.299.22.367a.41.41 0 0 0 .428-.02l6.19-4.114v3.767c0 .166.093.299.22.367a.41.41 0 0 0 .428-.02l6.926-4.602A.41.41 0 0 0 18.38 10a.41.41 0 0 0-.186-.347"></path>
    </symbol>
    <symbol id = "previous" viewBox="0 0 20 20">
        <path fill="currentColor" d="M15.997 5.03a.41.41 0 0 0-.428.021L9.38 9.165V5.398a.41.41 0 0 0-.22-.367.41.41 0 0 0-.428.02L1.806 9.653a.41.41 0 0 0-.187.347c0 .132.062.265.187.347L8.73 14.95c.139.092.3.088.428.02.127-.068.22-.2.22-.367v-3.767l6.19 4.114c.139.092.3.088.428.02.127-.068.22-.2.22-.367V5.398a.41.41 0 0 0-.22-.367"></path>
    </symbol>
     <symbol id = "audio_on" viewBox="0 0 20 20">
        <path fill="currentColor" d="M10.28 18.205H8.908a.83.83 0 0 1-.58-.235l-3.717-3.6-1.715.01c-.347 0-.702.003-1.031-.055-.33-.057-.632-.175-.873-.415-.242-.24-.362-.54-.422-.869s-.06-.683-.06-1.033v-3.96c0-.943.121-1.536.479-1.894.357-.358.95-.48 1.893-.48l1.723-.017 3.724-3.605a.83.83 0 0 1 .58-.235h1.373a.415.415 0 0 1 .416.417v15.554a.415.415 0 0 1-.416.416m-4.755-5.268 3.506 3.394V3.691L5.525 7.086a.83.83 0 0 1-.571.234l-2.064.021c-.07 0-.193 0-.323.003s-.268.01-.368.021c-.012.1-.018.237-.021.366-.003.13-.003.25-.003.316v3.961c0 .067 0 .188.003.318s.01.268.022.367c.1.012.238.017.367.019.13.002.252.001.319.002l2.054-.011a.83.83 0 0 1 .585.234m8.062-7.293-.656.538a.4.4 0 0 0-.143.242.43.43 0 0 0 .044.28 7.04 7.04 0 0 1 .588 5.074 7 7 0 0 1-.64 1.614.43.43 0 0 0-.048.283.4.4 0 0 0 .144.245l.657.539c.097.08.221.108.336.09a.4.4 0 0 0 .284-.196 8.72 8.72 0 0 0 .875-6.57 8.8 8.8 0 0 0-.807-2.01.43.43 0 0 0-.288-.214.41.41 0 0 0-.346.085m3.012-2.468-.652.534a.4.4 0 0 0-.145.254c-.015.097.004.2.06.289A10.9 10.9 0 0 1 17.493 10a10.94 10.94 0 0 1-1.69 5.843.43.43 0 0 0-.061.29c.014.097.063.19.145.256l.646.529a.42.42 0 0 0 .327.09.4.4 0 0 0 .284-.18A12.54 12.54 0 0 0 19.16 10a12.6 12.6 0 0 0-1.947-6.73.4.4 0 0 0-.285-.185.42.42 0 0 0-.33.09"></path>
    </symbol>
    <symbol id = "mute" viewBox="0 0 20 20">
        <path fill="currentColor" d="m12.924 16.59-4.831-3.505a1.67 1.67 0 0 0-.988-.318l-1.976.01-.334-.001a4 4 0 0 1-.381-.021 4 4 0 0 1-.024-.382c-.004-.136-.004-.264-.004-.334V8.97a.83.83 0 0 0-.345-.676l-.66-.476a.41.41 0 0 0-.434-.033.41.41 0 0 0-.227.37v3.884c0 .355 0 .716.06 1.05.062.333.183.637.427.88.244.242.55.361.882.42.333.059.695.056 1.05.056l1.975-.011 4.959 3.597a1.66 1.66 0 0 0 .978.317h1.123a.415.415 0 0 0 .417-.416V16.33a.83.83 0 0 0-.346-.675l-.66-.477a.41.41 0 0 0-.434-.033.41.41 0 0 0-.227.371zm5.643-2.432-3.976-2.868V2.068a.415.415 0 0 0-.416-.416H12.78a.83.83 0 0 0-.49.158L6.893 5.726l.016.022-4.119-2.97a.415.415 0 0 0-.581.094l-.488.675a.415.415 0 0 0 .095.582l15.776 11.38a.415.415 0 0 0 .582-.094l.487-.676a.415.415 0 0 0-.094-.581M8.31 6.758l4.616-3.348v6.677z"></path>
    </symbol>
    <symbol id = "shuffle" viewBox="0 0 20 20">
        <path fill="currentColor" d="M2.002 14.81v.833a.423.423 0 0 0 .424.417c1.665-.009 2.767-.077 3.624-.377s1.47-.832 2.152-1.768a.59.59 0 0 0 .026-.64l-.412-.692a.418.418 0 0 0-.7-.017c-.594.868-1.07 1.324-1.745 1.563-.677.24-1.553.263-2.948.265a.425.425 0 0 0-.421.417m14.346-3.305a.38.38 0 0 0-.417-.083.38.38 0 0 0-.237.354v2.11c-1.235-.01-1.973-.079-2.553-.41-.737-.42-1.235-1.261-2.226-2.939l-.307-.519.307-.52c.991-1.677 1.489-2.519 2.225-2.939.58-.331 1.317-.4 2.554-.41v2.073c0 .17.103.299.237.354a.38.38 0 0 0 .417-.083l2.84-2.84a.477.477 0 0 0 0-.678l-2.84-2.84a.38.38 0 0 0-.417-.083.38.38 0 0 0-.237.354v2.081c-1.639.02-2.631.121-3.416.569-.904.515-1.553 1.498-2.638 3.327C8.506 6.475 7.799 5.38 6.885 4.765c-.98-.658-2.202-.776-4.461-.787a.42.42 0 0 0-.423.417v.832c0 .115.048.22.125.295a.43.43 0 0 0 .297.122c1.833.002 2.77.038 3.533.555.764.517 1.354 1.516 2.493 3.445l1.031 1.742c1.168 1.977 1.827 3.02 2.751 3.568.794.47 1.788.576 3.463.596v2.043c0 .17.103.299.237.354a.38.38 0 0 0 .417-.083l2.84-2.84a.48.48 0 0 0 0-.678z"></path>
    </symbol>
    <symbol id = "repeat" viewBox="0 0 20 20">
        <path fill="currentColor" d="m18.764 4.3-2.84-2.84a.38.38 0 0 0-.418-.083.38.38 0 0 0-.236.354v2.076H5.678a3.97 3.97 0 0 0-2.814 1.165 3.97 3.97 0 0 0-1.166 2.814v2.442a.415.415 0 0 0 .417.417h.833a.415.415 0 0 0 .417-.417V7.786c0-.639.259-1.217.677-1.635a2.3 2.3 0 0 1 1.636-.678h9.592v2.074c0 .17.103.299.236.354a.38.38 0 0 0 .418-.083l2.84-2.84a.48.48 0 0 0 0-.678m-.558 5.174a.42.42 0 0 0-.295-.122h-.833a.416.416 0 0 0-.417.416v2.442c0 .639-.259 1.217-.678 1.636a2.3 2.3 0 0 1-1.635.677H4.73v-2.07a.38.38 0 0 0-.236-.354.38.38 0 0 0-.418.083l-2.84 2.84a.48.48 0 0 0 0 .678l2.84 2.84a.38.38 0 0 0 .418.083.38.38 0 0 0 .236-.354v-2.08h9.618a3.97 3.97 0 0 0 2.814-1.165 3.97 3.97 0 0 0 1.166-2.814V9.768a.42.42 0 0 0-.122-.294"></path>
    </symbol>
    <symbol id = "list" viewBox="0 0 20 20">
        <path fill="currentColor" d="M17.497 3.625H7.247a.417.417 0 0 0-.416.416v.834c0 .23.186.416.416.416h10.25c.23 0 .417-.186.417-.416V4.04a.417.417 0 0 0-.417-.416m0 5.543H7.247a.417.417 0 0 0-.416.416v.834c0 .23.186.416.416.416h10.25c.23 0 .417-.186.417-.416v-.834a.417.417 0 0 0-.417-.416m0 5.542H7.247a.417.417 0 0 0-.416.416v.834c0 .23.186.416.416.416h10.25c.23 0 .417-.186.417-.416v-.834a.417.417 0 0 0-.417-.416M4.764 4.458a1.39 1.39 0 0 1-1.393 1.393 1.39 1.39 0 0 1-1.393-1.393A1.39 1.39 0 0 1 3.37 3.065a1.39 1.39 0 0 1 1.393 1.393M4.764 10c0 .385-.156.733-.408.985s-.6.408-.985.408-.733-.156-.985-.408A1.4 1.4 0 0 1 1.978 10 1.39 1.39 0 0 1 3.37 8.607 1.39 1.39 0 0 1 4.764 10m0 5.542a1.39 1.39 0 0 1-1.393 1.393 1.39 1.39 0 0 1-1.393-1.393 1.39 1.39 0 0 1 1.393-1.394 1.39 1.39 0 0 1 1.393 1.394"></path>
    </symbol>

    <symbol id="search" viewBox="0 0 50 50">
        <path d="M 21 3 C 11.621094 3 4 10.621094 4 20 C 4 29.378906 11.621094 37 21 37 C 24.710938 37 28.140625 35.804688 30.9375 33.78125 L 44.09375 46.90625 L 46.90625 44.09375 L 33.90625 31.0625 C 36.460938 28.085938 38 24.222656 38 20 C 38 10.621094 30.378906 3 21 3 Z M 21 5 C 29.296875 5 36 11.703125 36 20 C 36 28.296875 29.296875 35 21 35 C 12.703125 35 6 28.296875 6 20 C 6 11.703125 12.703125 5 21 5 Z"/></symbol>
</svg>