<svg xmlns="http://www.w3.org/2000/svg">
    <symbol id = "play" viewBox="0 0 20 20">
       <path fill="currentColor" d="M17.194 9.64 6.139 3.256a.41.41 0 0 0-.416 0 .41.41 0 0 0-.209.36v12.765c0 .16.087.291.209.361.121.07.277.08.416 0l11.055-6.382a.41.41 0 0 0 .208-.361c0-.14-.07-.28-.208-.36"></path>  
    </symbol>
    <symbol id = "pause" viewBox="0 0 20 20">
        <path fill="currentColor" d="M8.25 3.09v13.82a.415.415 0 0 1-.417.416H4.81a.415.415 0 0 1-.417-.416V3.09a.415.415 0 0 1 .417-.416h3.023a.415.415 0 0 1 .416.416m7.358 0v13.82a.415.415 0 0 1-.417.416h-3.022a.415.415 0 0 1-.417-.416V3.09a.415.415 0 0 1 .417-.416h3.022a.415.415 0 0 1 .417.416"></path>  
    </symbol>
    <symbol id = "next" viewBox="0 0 20 20">
       <path fill="currentColor" d="m18.195 9.653-6.926-4.602a.41.41 0 0 0-.427-.02.41.41 0 0 0-.22.367v3.767L4.43 5.051a.41.41 0 0 0-.428-.02.41.41 0 0 0-.22.367v9.204c0 .166.093.299.22.367a.41.41 0 0 0 .428-.02l6.19-4.114v3.767c0 .166.093.299.22.367a.41.41 0 0 0 .428-.02l6.926-4.602A.41.41 0 0 0 18.38 10a.41.41 0 0 0-.186-.347"></path>
    </symbol>
    <symbol id = "previous" viewBox="0 0 20 20">
        <path fill="currentColor" d="M15.997 5.03a.41.41 0 0 0-.428.021L9.38 9.165V5.398a.41.41 0 0 0-.22-.367.41.41 0 0 0-.428.02L1.806 9.653a.41.41 0 0 0-.187.347c0 .132.062.265.187.347L8.73 14.95c.139.092.3.088.428.02.127-.068.22-.2.22-.367v-3.767l6.19 4.114c.139.092.3.088.428.02.127-.068.22-.2.22-.367V5.398a.41.41 0 0 0-.22-.367"></path>
    </symbol>
     <symbol id = "audio_on" viewBox="0 0 20 20">
        <path fill="currentColor" d="M10.28 18.205H8.908a.83.83 0 0 1-.58-.235l-3.717-3.6-1.715.01c-.347 0-.702.003-1.031-.055-.33-.057-.632-.175-.873-.415-.242-.24-.362-.54-.422-.869s-.06-.683-.06-1.033v-3.96c0-.943.121-1.536.479-1.894.357-.358.95-.48 1.893-.48l1.723-.017 3.724-3.605a.83.83 0 0 1 .58-.235h1.373a.415.415 0 0 1 .416.417v15.554a.415.415 0 0 1-.416.416m-4.755-5.268 3.506 3.394V3.691L5.525 7.086a.83.83 0 0 1-.571.234l-2.064.021c-.07 0-.193 0-.323.003s-.268.01-.368.021c-.012.1-.018.237-.021.366-.003.13-.003.25-.003.316v3.961c0 .067 0 .188.003.318s.01.268.022.367c.1.012.238.017.367.019.13.002.252.001.319.002l2.054-.011a.83.83 0 0 1 .585.234m8.062-7.293-.656.538a.4.4 0 0 0-.143.242.43.43 0 0 0 .044.28 7.04 7.04 0 0 1 .588 5.074 7 7 0 0 1-.64 1.614.43.43 0 0 0-.048.283.4.4 0 0 0 .144.245l.657.539c.097.08.221.108.336.09a.4.4 0 0 0 .284-.196 8.72 8.72 0 0 0 .875-6.57 8.8 8.8 0 0 0-.807-2.01.43.43 0 0 0-.288-.214.41.41 0 0 0-.346.085m3.012-2.468-.652.534a.4.4 0 0 0-.145.254c-.015.097.004.2.06.289A10.9 10.9 0 0 1 17.493 10a10.94 10.94 0 0 1-1.69 5.843.43.43 0 0 0-.061.29c.014.097.063.19.145.256l.646.529a.42.42 0 0 0 .327.09.4.4 0 0 0 .284-.18A12.54 12.54 0 0 0 19.16 10a12.6 12.6 0 0 0-1.947-6.73.4.4 0 0 0-.285-.185.42.42 0 0 0-.33.09"></path>
    </symbol>
    <symbol id = "mute" viewBox="0 0 20 20">
        <path fill="currentColor" d="m12.924 16.59-4.831-3.505a1.67 1.67 0 0 0-.988-.318l-1.976.01-.334-.001a4 4 0 0 1-.381-.021 4 4 0 0 1-.024-.382c-.004-.136-.004-.264-.004-.334V8.97a.83.83 0 0 0-.345-.676l-.66-.476a.41.41 0 0 0-.434-.033.41.41 0 0 0-.227.37v3.884c0 .355 0 .716.06 1.05.062.333.183.637.427.88.244.242.55.361.882.42.333.059.695.056 1.05.056l1.975-.011 4.959 3.597a1.66 1.66 0 0 0 .978.317h1.123a.415.415 0 0 0 .417-.416V16.33a.83.83 0 0 0-.346-.675l-.66-.477a.41.41 0 0 0-.434-.033.41.41 0 0 0-.227.371zm5.643-2.432-3.976-2.868V2.068a.415.415 0 0 0-.416-.416H12.78a.83.83 0 0 0-.49.158L6.893 5.726l.016.022-4.119-2.97a.415.415 0 0 0-.581.094l-.488.675a.415.415 0 0 0 .095.582l15.776 11.38a.415.415 0 0 0 .582-.094l.487-.676a.415.415 0 0 0-.094-.581M8.31 6.758l4.616-3.348v6.677z"></path>
    </symbol>
    <symbol id = "shuffle" viewBox="0 0 20 20">
        <path fill="currentColor" d="M2.002 14.81v.833a.423.423 0 0 0 .424.417c1.665-.009 2.767-.077 3.624-.377s1.47-.832 2.152-1.768a.59.59 0 0 0 .026-.64l-.412-.692a.418.418 0 0 0-.7-.017c-.594.868-1.07 1.324-1.745 1.563-.677.24-1.553.263-2.948.265a.425.425 0 0 0-.421.417m14.346-3.305a.38.38 0 0 0-.417-.083.38.38 0 0 0-.237.354v2.11c-1.235-.01-1.973-.079-2.553-.41-.737-.42-1.235-1.261-2.226-2.939l-.307-.519.307-.52c.991-1.677 1.489-2.519 2.225-2.939.58-.331 1.317-.4 2.554-.41v2.073c0 .17.103.299.237.354a.38.38 0 0 0 .417-.083l2.84-2.84a.477.477 0 0 0 0-.678l-2.84-2.84a.38.38 0 0 0-.417-.083.38.38 0 0 0-.237.354v2.081c-1.639.02-2.631.121-3.416.569-.904.515-1.553 1.498-2.638 3.327C8.506 6.475 7.799 5.38 6.885 4.765c-.98-.658-2.202-.776-4.461-.787a.42.42 0 0 0-.423.417v.832c0 .115.048.22.125.295a.43.43 0 0 0 .297.122c1.833.002 2.77.038 3.533.555.764.517 1.354 1.516 2.493 3.445l1.031 1.742c1.168 1.977 1.827 3.02 2.751 3.568.794.47 1.788.576 3.463.596v2.043c0 .17.103.299.237.354a.38.38 0 0 0 .417-.083l2.84-2.84a.48.48 0 0 0 0-.678z"></path>
    </symbol>
    <symbol id = "repeat" viewBox="0 0 20 20">
        <path fill="currentColor" d="m18.764 4.3-2.84-2.84a.38.38 0 0 0-.418-.083.38.38 0 0 0-.236.354v2.076H5.678a3.97 3.97 0 0 0-2.814 1.165 3.97 3.97 0 0 0-1.166 2.814v2.442a.415.415 0 0 0 .417.417h.833a.415.415 0 0 0 .417-.417V7.786c0-.639.259-1.217.677-1.635a2.3 2.3 0 0 1 1.636-.678h9.592v2.074c0 .17.103.299.236.354a.38.38 0 0 0 .418-.083l2.84-2.84a.48.48 0 0 0 0-.678m-.558 5.174a.42.42 0 0 0-.295-.122h-.833a.416.416 0 0 0-.417.416v2.442c0 .639-.259 1.217-.678 1.636a2.3 2.3 0 0 1-1.635.677H4.73v-2.07a.38.38 0 0 0-.236-.354.38.38 0 0 0-.418.083l-2.84 2.84a.48.48 0 0 0 0 .678l2.84 2.84a.38.38 0 0 0 .418.083.38.38 0 0 0 .236-.354v-2.08h9.618a3.97 3.97 0 0 0 2.814-1.165 3.97 3.97 0 0 0 1.166-2.814V9.768a.42.42 0 0 0-.122-.294"></path>
    </symbol>
    <symbol id = "list" viewBox="0 0 20 20">
        <path fill="currentColor" d="M17.497 3.625H7.247a.417.417 0 0 0-.416.416v.834c0 .23.186.416.416.416h10.25c.23 0 .417-.186.417-.416V4.04a.417.417 0 0 0-.417-.416m0 5.543H7.247a.417.417 0 0 0-.416.416v.834c0 .23.186.416.416.416h10.25c.23 0 .417-.186.417-.416v-.834a.417.417 0 0 0-.417-.416m0 5.542H7.247a.417.417 0 0 0-.416.416v.834c0 .23.186.416.416.416h10.25c.23 0 .417-.186.417-.416v-.834a.417.417 0 0 0-.417-.416M4.764 4.458a1.39 1.39 0 0 1-1.393 1.393 1.39 1.39 0 0 1-1.393-1.393A1.39 1.39 0 0 1 3.37 3.065a1.39 1.39 0 0 1 1.393 1.393M4.764 10c0 .385-.156.733-.408.985s-.6.408-.985.408-.733-.156-.985-.408A1.4 1.4 0 0 1 1.978 10 1.39 1.39 0 0 1 3.37 8.607 1.39 1.39 0 0 1 4.764 10m0 5.542a1.39 1.39 0 0 1-1.393 1.393 1.39 1.39 0 0 1-1.393-1.393 1.39 1.39 0 0 1 1.393-1.394 1.39 1.39 0 0 1 1.393 1.394"></path>
    </symbol>

    <symbol id="rs_school" viewBox="0 0 552.8 205.3">
        <path d="M285.4 68l26.3-1.7c.6 4.3 1.7 7.5 3.5 9.8 2.9 3.6 6.9 5.4 12.2 5.4 3.9 0 7-.9 9.1-2.8 2-1.5 3.2-3.9 3.2-6.4 0-2.4-1.1-4.7-3-6.2-2-1.8-6.7-3.6-14.1-5.2-12.1-2.7-20.8-6.3-25.9-10.9-5.1-4.3-8-10.6-7.8-17.3 0-4.6 1.4-9.2 4-13 3-4.3 7.1-7.7 12-9.6 5.3-2.3 12.7-3.5 22-3.5 11.4 0 20.1 2.1 26.1 6.4 6 4.2 9.6 11 10.7 20.3l-26 1.5c-.7-4-2.1-6.9-4.4-8.8s-5.3-2.8-9.2-2.8c-3.2 0-5.6.7-7.2 2-1.5 1.2-2.5 3-2.4 5 0 1.5.8 2.9 2 3.8 1.3 1.2 4.4 2.3 9.3 3.3 12.1 2.6 20.7 5.2 26 7.9 5.3 2.7 9.1 6 11.4 9.9 2.4 4 3.6 8.6 3.5 13.3 0 5.6-1.6 11.2-4.8 15.9-3.3 4.9-7.9 8.7-13.3 11-5.7 2.5-12.9 3.8-21.5 3.8-15.2 0-25.7-2.9-31.6-8.8S286.1 77 285.4 68zM6.3 97.6V8.2h46.1c8.5 0 15.1.7 19.6 2.2 4.4 1.4 8.3 4.3 10.9 8.2 2.9 4.3 4.3 9.3 4.2 14.5.3 8.8-4.2 17.2-11.9 21.6-3 1.7-6.3 2.9-9.7 3.5 2.5.7 5 1.9 7.2 3.3 1.7 1.4 3.1 3 4.4 4.7 1.5 1.7 2.8 3.6 3.9 5.6l13.4 25.9H63L48.2 70.2c-1.9-3.5-3.5-5.8-5-6.9-2-1.4-4.4-2.1-6.8-2.1H34v36.3H6.3zM34 44.4h11.7c2.5-.2 4.9-.6 7.3-1.2 1.8-.3 3.4-1.3 4.5-2.8 2.7-3.6 2.3-8.7-1-11.8-1.8-1.5-5.3-2.3-10.3-2.3H34v18.1zM0 174.2l26.3-1.7c.6 4.3 1.7 7.5 3.5 9.8 2.8 3.6 6.9 5.5 12.2 5.5 3.9 0 7-.9 9.1-2.8 2-1.6 3.2-3.9 3.2-6.4 0-2.4-1.1-4.7-3-6.2-2-1.8-6.7-3.6-14.2-5.2-12.1-2.7-20.8-6.3-25.9-10.9-5.1-4.3-8-10.6-7.8-17.3 0-4.6 1.4-9.2 4-13 3-4.3 7.1-7.7 12-9.6 5.3-2.3 12.7-3.5 22-3.5 11.4 0 20.1 2.1 26.1 6.4s9.5 11 10.6 20.3l-26 1.5c-.7-4-2.1-6.9-4.4-8.8-2.2-1.9-5.3-2.8-9.2-2.7-3.2 0-5.6.7-7.2 2.1-1.6 1.2-2.5 3-2.4 5 0 1.5.8 2.9 2 3.8 1.3 1.2 4.4 2.3 9.3 3.3 12.1 2.6 20.7 5.2 26 7.9 5.3 2.7 9.1 6 11.4 9.9 2.4 4 3.6 8.6 3.6 13.2 0 5.6-1.7 11.1-4.8 15.8-3.3 4.9-7.9 8.7-13.3 11-5.7 2.5-12.9 3.8-21.5 3.8-15.2 0-25.7-2.9-31.6-8.8-5.9-6-9.2-13.4-10-22.4z"/>
    <path d="M133 167.2l24.2 7.3c-1.3 6.1-4 11.9-7.7 17-3.4 4.5-7.9 8-13 10.3-5.2 2.3-11.8 3.5-19.8 3.5-9.7 0-17.7-1.4-23.8-4.2-6.2-2.8-11.5-7.8-16-14.9-4.5-7.1-6.7-16.2-6.7-27.3 0-14.8 3.9-26.2 11.8-34.1s19-11.9 33.4-11.9c11.3 0 20.1 2.3 26.6 6.8 6.4 4.6 11.2 11.6 14.4 21l-24.4 5.4c-.6-2.1-1.5-4.2-2.7-6-1.5-2.1-3.4-3.7-5.7-4.9-2.3-1.2-4.9-1.7-7.5-1.7-6.3 0-11.1 2.5-14.4 7.6-2.5 3.7-3.8 9.6-3.8 17.6 0 9.9 1.5 16.7 4.5 20.4 3 3.7 7.2 5.5 12.7 5.5 5.3 0 9.3-1.5 12-4.4 2.7-3.1 4.7-7.4 5.9-13zm56.5-52.8h27.6v31.3h30.2v-31.3h27.8v89.4h-27.8v-36.2h-30.2v36.2h-27.6v-89.4z"/>
    <path d="M271.3 159.1c0-14.6 4.1-26 12.2-34.1 8.1-8.1 19.5-12.2 34-12.2 14.9 0 26.3 4 34.4 12S364 144 364 158.4c0 10.5-1.8 19-5.3 25.7-3.4 6.6-8.7 12-15.2 15.6-6.7 3.7-15 5.6-24.9 5.6-10.1 0-18.4-1.6-25-4.8-6.8-3.4-12.4-8.7-16.1-15.2-4.1-7-6.2-15.7-6.2-26.2zm27.6.1c0 9 1.7 15.5 5 19.5 3.3 3.9 7.9 5.9 13.7 5.9 5.9 0 10.5-1.9 13.8-5.8s4.9-10.8 4.9-20.8c0-8.4-1.7-14.6-5.1-18.4-3.4-3.9-8-5.8-13.8-5.8-5.1-.2-10 2-13.4 5.9-3.4 3.9-5.1 10.4-5.1 19.5zm93.4-.1c0-14.6 4.1-26 12.2-34.1 8.1-8.1 19.5-12.2 34-12.2 14.9 0 26.4 4 34.4 12S485 144 485 158.4c0 10.5-1.8 19-5.3 25.7-3.4 6.6-8.7 12-15.2 15.6-6.7 3.7-15 5.6-24.9 5.6-10.1 0-18.4-1.6-25-4.8-6.8-3.4-12.4-8.7-16.1-15.2-4.1-7-6.2-15.7-6.2-26.2zm27.6.1c0 9 1.7 15.5 5 19.5 3.3 3.9 7.9 5.9 13.7 5.9 5.9 0 10.5-1.9 13.8-5.8 3.3-3.9 4.9-10.8 4.9-20.8 0-8.4-1.7-14.6-5.1-18.4-3.4-3.9-8-5.8-13.8-5.8-5.1-.2-10.1 2-13.4 5.9-3.4 3.9-5.1 10.4-5.1 19.5z"/>
    <path d="M482.1 114.4h27.6v67.4h43.1v22H482v-89.4z"/>
    <ellipse transform="rotate(-37.001 420.46 67.88)" class="st0" cx="420.5" cy="67.9" rx="63" ry="51.8"/>
    <defs><ellipse id="SVGID_1_" transform="rotate(-37.001 420.46 67.88)" cx="420.5" cy="67.9" rx="63" ry="51.8"/></defs>
    <clipPath id="SVGID_2_"><use xlink:href="#SVGID_1_" overflow="visible"/></clipPath>
    <g class="st1"><path transform="rotate(-37.001 420.82 68.353)" class="st0" d="M330.9-14.2h179.8v165.1H330.9z"/>
    <g id="Layer_2_1_"><defs><path id="SVGID_3_" transform="rotate(-37.001 420.82 68.353)" d="M330.9-14.2h179.8v165.1H330.9z"/></defs>
    <clipPath id="SVGID_4_"><use xlink:href="#SVGID_3_" overflow="visible"/></clipPath>
    <g id="Layer_1-2" class="st2"><ellipse transform="rotate(-37.001 420.46 67.88)" class="st0" cx="420.5" cy="67.9" rx="63" ry="51.8"/><defs><ellipse id="SVGID_5_" transform="rotate(-37.001 420.46 67.88)" cx="420.5" cy="67.9" rx="63" ry="51.8"/></defs>
    <clipPath id="SVGID_6_"><use xlink:href="#SVGID_5_" overflow="visible"/></clipPath>
    <g class="st3"><path transform="rotate(-37 420.799 68.802)" class="st0" d="M357.8 17h125.9v103.7H357.8z"/>
    <defs><path id="SVGID_7_" transform="rotate(-37 420.799 68.802)" d="M357.8 17h125.9v103.7H357.8z"/></defs>
    <clipPath id="SVGID_8_"><use xlink:href="#SVGID_7_" overflow="visible"/></clipPath>
    <g class="st4"><ellipse transform="rotate(-37.001 420.46 67.88)" class="st5" cx="420.5" cy="67.9" rx="63" ry="51.8"/></g><path transform="rotate(-37 420.799 68.802)" class="st6" d="M357.8 17h125.9v103.7H357.8z"/>
    <ellipse transform="rotate(-37.001 420.46 67.88)" class="st7" cx="420.5" cy="67.9" rx="63" ry="51.8"/>
    <path transform="rotate(-37 420.799 68.802)" class="st0" d="M357.8 17h125.9v103.7H357.8z"/>
    <defs><path id="SVGID_9_" transform="rotate(-37 420.799 68.802)" d="M357.8 17h125.9v103.7H357.8z"/></defs>
    <clipPath id="SVGID_10_"><use xlink:href="#SVGID_9_" overflow="visible"/></clipPath>
    <g class="st8"><ellipse transform="rotate(-37.001 420.46 67.88)" class="st5" cx="420.5" cy="67.9" rx="63" ry="51.8"/></g>
    <path transform="rotate(-37 420.799 68.802)" class="st9" d="M357.8 17h125.9v103.7H357.8z"/>
    <path transform="rotate(-37.001 420.82 68.353)" class="st7" d="M330.9-14.2h179.8v165.1H330.9z"/></g>
    <ellipse transform="rotate(-37.001 420.46 67.88)" class="st7" cx="420.5" cy="67.9" rx="63" ry="51.8"/>
    <path d="M392.4 61.3l10-7 12.3 17.5c2.1 2.8 3.7 5.8 4.9 9.1.7 2.5.5 5.2-.5 7.6-1.3 3-3.4 5.5-6.2 7.3-3.3 2.3-6.1 3.6-8.5 4-2.3.4-4.7 0-6.9-1-2.4-1.2-4.5-2.9-6.1-5.1l8.6-8c.7 1.1 1.6 2.1 2.6 2.9.7.5 1.5.8 2.4.8.7 0 1.4-.3 1.9-.7 1-.6 1.7-1.8 1.6-3-.3-1.7-1-3.4-2.1-4.7l-14-19.7zm30 11.1l9.1-7.2c1 1.2 2.3 2.1 3.7 2.6 2 .6 4.1.2 5.8-1.1 1.2-.8 2.2-1.9 2.6-3.3.6-1.8-.4-3.8-2.2-4.4-.3-.1-.6-.2-.9-.2-1.2-.1-3.3.4-6.4 1.7-5.1 2.1-9.1 2.9-12.1 2.6-2.9-.3-5.6-1.8-7.2-4.3-1.2-1.7-1.8-3.7-1.9-5.7 0-2.3.6-4.6 1.9-6.5 1.9-2.7 4.2-5 7-6.8 4.2-2.9 7.9-4.3 11.1-4.3 3.2 0 6.2 1.5 9 4.6l-9 7.1c-1.8-2.3-5.2-2.8-7.5-1l-.3.3c-1 .6-1.7 1.5-2.1 2.6-.3.8-.1 1.7.4 2.4.4.5 1 .9 1.7.9.8.1 2.2-.3 4.2-1.2 5-2.1 8.8-3.3 11.4-3.7 2.2-.4 4.5-.2 6.6.7 1.9.8 3.5 2.2 4.6 3.9 1.4 2 2.2 4.4 2.3 6.9.1 2.6-.6 5.1-2 7.3-1.8 2.7-4.1 5-6.8 6.8-5.5 3.8-10 5.4-13.6 4.8-3.9-.6-7.1-2.6-9.4-5.5z"/></g></g></g></symbol>
</svg>